HIERARCHY
ROOT mixamorig:Hips
{
	OFFSET 0.000000 201.639420 0.000000
	CHANNELS 6 Xposition Yposition Zposition Xrotation Yrotation Zrotation
	JOINT mixamorig:Spine
	{
		OFFSET 0.006200 19.524994 -2.481800
		CHANNELS 3 Xrotation Yrotation Zrotation
		JOINT mixamorig:Spine1
		{
			OFFSET -0.000900 22.835007 -2.825400
			CHANNELS 3 Xrotation Yrotation Zrotation
			JOINT mixamorig:Spine2
			{
				OFFSET -0.020600 26.552490 -3.193300
				CHANNELS 3 Xrotation Yrotation Zrotation
				JOINT mixamorig:Neck
				{
					OFFSET -0.060000 30.701813 1.352200
					CHANNELS 3 Xrotation Yrotation Zrotation
					JOINT mixamorig:Head
					{
						OFFSET -0.087200 22.547607 3.670900
						CHANNELS 3 Xrotation Yrotation Zrotation
						JOINT mixamorig:HeadTop_End
						{
							OFFSET -0.830600 40.355194 7.893500
							CHANNELS 3 Xrotation Yrotation Zrotation
							End Site
							{
								OFFSET 0.000000 30.592346 0.000000
							}
						}
						JOINT mixamorig:RightEye
						{
							OFFSET -6.302100 18.118591 16.197100
							CHANNELS 3 Xrotation Yrotation Zrotation
							End Site
							{
								OFFSET 0.000000 30.592346 0.000000
							}
						}
						JOINT mixamorig:LeftEye
						{
							OFFSET 6.741500 18.382690 16.401899
							CHANNELS 3 Xrotation Yrotation Zrotation
							End Site
							{
								OFFSET 0.000000 30.592346 0.000000
							}
						}
					}
				}
				JOINT mixamorig:LeftShoulder
				{
					OFFSET 11.924900 18.230499 1.425400
					CHANNELS 3 Xrotation Yrotation Zrotation
					JOINT mixamorig:LeftArm
					{
						OFFSET 25.435989 -0.697632 -5.229300
						CHANNELS 3 Xrotation Yrotation Zrotation
						JOINT mixamorig:LeftForeArm
						{
							OFFSET 54.684776 0.000000 0.000000
							CHANNELS 3 Xrotation Yrotation Zrotation
							JOINT mixamorig:LeftHand
							{
								OFFSET 55.098175 0.000000 0.000000
								CHANNELS 3 Xrotation Yrotation Zrotation
								JOINT mixamorig:LeftHandMiddle1
								{
									OFFSET 23.369751 0.000000 0.000000
									CHANNELS 3 Xrotation Yrotation Zrotation
									JOINT mixamorig:LeftHandMiddle2
									{
										OFFSET 6.378677 0.000000 0.000000
										CHANNELS 3 Xrotation Yrotation Zrotation
										JOINT mixamorig:LeftHandMiddle3
										{
											OFFSET 6.148331 0.000000 0.000000
											CHANNELS 3 Xrotation Yrotation Zrotation
											JOINT mixamorig:LeftHandMiddle4
											{
												OFFSET 6.582504 0.000000 0.000000
												CHANNELS 3 Xrotation Yrotation Zrotation
												End Site
												{
													OFFSET -1.168900 6.395691 1.028606
												}
											}
										}
									}
								}
								JOINT mixamorig:LeftHandThumb1
								{
									OFFSET 7.235672 -3.848206 5.434273
									CHANNELS 3 Xrotation Yrotation Zrotation
									JOINT mixamorig:LeftHandThumb2
									{
										OFFSET 6.568451 -3.792297 3.792300
										CHANNELS 3 Xrotation Yrotation Zrotation
										JOINT mixamorig:LeftHandThumb3
										{
											OFFSET 6.063080 -3.500519 3.500518
											CHANNELS 3 Xrotation Yrotation Zrotation
											JOINT mixamorig:LeftHandThumb4
											{
												OFFSET 4.793182 -2.767334 2.767349
												CHANNELS 3 Xrotation Yrotation Zrotation
												End Site
												{
													OFFSET 0.101639 6.054260 1.275483
												}
											}
										}
									}
								}
								JOINT mixamorig:LeftHandIndex1
								{
									OFFSET 23.101074 -0.309540 4.992809
									CHANNELS 3 Xrotation Yrotation Zrotation
									JOINT mixamorig:LeftHandIndex2
									{
										OFFSET 6.226883 0.000000 0.000000
										CHANNELS 3 Xrotation Yrotation Zrotation
										JOINT mixamorig:LeftHandIndex3
										{
											OFFSET 6.094330 0.000000 0.000000
											CHANNELS 3 Xrotation Yrotation Zrotation
											JOINT mixamorig:LeftHandIndex4
											{
												OFFSET 5.482605 0.000000 0.000000
												CHANNELS 3 Xrotation Yrotation Zrotation
												End Site
												{
													OFFSET -1.427902 5.233032 0.797164
												}
											}
										}
									}
								}
								JOINT mixamorig:LeftHandRing1
								{
									OFFSET 22.299240 0.021149 -3.964172
									CHANNELS 3 Xrotation Yrotation Zrotation
									JOINT mixamorig:LeftHandRing2
									{
										OFFSET 6.321869 0.000000 0.000000
										CHANNELS 3 Xrotation Yrotation Zrotation
										JOINT mixamorig:LeftHandRing3
										{
											OFFSET 5.899796 0.000000 0.000000
											CHANNELS 3 Xrotation Yrotation Zrotation
											JOINT mixamorig:LeftHandRing4
											{
												OFFSET 6.517899 0.000000 0.000000
												CHANNELS 3 Xrotation Yrotation Zrotation
												End Site
												{
													OFFSET -1.637299 6.232208 0.980890
												}
											}
										}
									}
								}
								JOINT mixamorig:LeftHandPinky1
								{
									OFFSET 20.463791 -0.302338 -8.562233
									CHANNELS 3 Xrotation Yrotation Zrotation
									JOINT mixamorig:LeftHandPinky2
									{
										OFFSET 6.908646 0.000000 0.000000
										CHANNELS 3 Xrotation Yrotation Zrotation
										JOINT mixamorig:LeftHandPinky3
										{
											OFFSET 4.622849 0.000000 0.000000
											CHANNELS 3 Xrotation Yrotation Zrotation
											JOINT mixamorig:LeftHandPinky4
											{
												OFFSET 5.216080 0.000000 0.000000
												CHANNELS 3 Xrotation Yrotation Zrotation
												End Site
												{
													OFFSET -0.606308 5.116241 0.814926
												}
											}
										}
									}
								}
							}
						}
					}
				}
				JOINT mixamorig:RightShoulder
				{
					OFFSET -12.001300 18.284088 1.348900
					CHANNELS 3 Xrotation Yrotation Zrotation
					JOINT mixamorig:RightArm
					{
						OFFSET -25.308500 -0.751312 -5.164599
						CHANNELS 3 Xrotation Yrotation Zrotation
						JOINT mixamorig:RightForeArm
						{
							OFFSET -54.684429 0.000000 0.000000
							CHANNELS 3 Xrotation Yrotation Zrotation
							JOINT mixamorig:RightHand
							{
								OFFSET -55.150291 0.000000 0.000000
								CHANNELS 3 Xrotation Yrotation Zrotation
								JOINT mixamorig:RightHandMiddle1
								{
									OFFSET -23.317566 0.000000 0.000000
									CHANNELS 3 Xrotation Yrotation Zrotation
									JOINT mixamorig:RightHandMiddle2
									{
										OFFSET -6.378403 0.000000 0.000000
										CHANNELS 3 Xrotation Yrotation Zrotation
										JOINT mixamorig:RightHandMiddle3
										{
											OFFSET -6.148193 0.000000 0.000000
											CHANNELS 3 Xrotation Yrotation Zrotation
											JOINT mixamorig:RightHandMiddle4
											{
												OFFSET -6.583389 0.000000 0.000000
												CHANNELS 3 Xrotation Yrotation Zrotation
												End Site
												{
													OFFSET 1.171692 6.395905 1.029786
												}
											}
										}
									}
								}
								JOINT mixamorig:RightHandThumb1
								{
									OFFSET -7.190521 -3.860474 5.435846
									CHANNELS 3 Xrotation Yrotation Zrotation
									JOINT mixamorig:RightHandThumb2
									{
										OFFSET -6.567429 -3.791718 3.791708
										CHANNELS 3 Xrotation Yrotation Zrotation
										JOINT mixamorig:RightHandThumb3
										{
											OFFSET -6.062469 -3.500153 3.500166
											CHANNELS 3 Xrotation Yrotation Zrotation
											JOINT mixamorig:RightHandThumb4
											{
												OFFSET -4.792618 -2.767029 2.767022
												CHANNELS 3 Xrotation Yrotation Zrotation
												End Site
												{
													OFFSET -0.100327 6.053253 1.276754
												}
											}
										}
									}
								}
								JOINT mixamorig:RightHandIndex1
								{
									OFFSET -23.048981 -0.310791 4.992554
									CHANNELS 3 Xrotation Yrotation Zrotation
									JOINT mixamorig:RightHandIndex2
									{
										OFFSET -6.227539 0.000000 0.000000
										CHANNELS 3 Xrotation Yrotation Zrotation
										JOINT mixamorig:RightHandIndex3
										{
											OFFSET -6.095047 0.000000 0.000000
											CHANNELS 3 Xrotation Yrotation Zrotation
											JOINT mixamorig:RightHandIndex4
											{
												OFFSET -5.484772 0.000000 0.000000
												CHANNELS 3 Xrotation Yrotation Zrotation
												End Site
												{
													OFFSET 1.420593 5.237305 0.797056
												}
											}
										}
									}
								}
								JOINT mixamorig:RightHandRing1
								{
									OFFSET -22.246323 0.020569 -3.963762
									CHANNELS 3 Xrotation Yrotation Zrotation
									JOINT mixamorig:RightHandRing2
									{
										OFFSET -6.322128 0.000000 0.000000
										CHANNELS 3 Xrotation Yrotation Zrotation
										JOINT mixamorig:RightHandRing3
										{
											OFFSET -5.900024 0.000000 0.000000
											CHANNELS 3 Xrotation Yrotation Zrotation
											JOINT mixamorig:RightHandRing4
											{
												OFFSET -6.518356 0.000000 0.000000
												CHANNELS 3 Xrotation Yrotation Zrotation
												End Site
												{
													OFFSET 1.636398 6.232697 0.982186
												}
											}
										}
									}
								}
								JOINT mixamorig:RightHandPinky1
								{
									OFFSET -20.411011 -0.303314 -8.561701
									CHANNELS 3 Xrotation Yrotation Zrotation
									JOINT mixamorig:RightHandPinky2
									{
										OFFSET -6.907349 0.000000 0.000000
										CHANNELS 3 Xrotation Yrotation Zrotation
										JOINT mixamorig:RightHandPinky3
										{
											OFFSET -4.623840 0.000000 0.000000
											CHANNELS 3 Xrotation Yrotation Zrotation
											JOINT mixamorig:RightHandPinky4
											{
												OFFSET -5.218353 0.000000 0.000000
												CHANNELS 3 Xrotation Yrotation Zrotation
												End Site
												{
													OFFSET 0.602097 5.118835 0.816273
												}
											}
										}
									}
								}
							}
						}
					}
				}
			}
		}
	}
	JOINT mixamorig:LeftUpLeg
	{
		OFFSET 18.168400 -13.561905 -0.039000
		CHANNELS 3 Xrotation Yrotation Zrotation
		JOINT mixamorig:LeftLeg
		{
			OFFSET 0.577358 -80.825211 -3.695000
			CHANNELS 3 Xrotation Yrotation Zrotation
			JOINT mixamorig:LeftFoot
			{
				OFFSET -0.577356 -83.370262 -6.520700
				CHANNELS 3 Xrotation Yrotation Zrotation
				JOINT mixamorig:LeftToeBase
				{
					OFFSET 0.750401 -20.798306 25.135401
					CHANNELS 3 Xrotation Yrotation Zrotation
					JOINT mixamorig:LeftToe_End
					{
						OFFSET -0.000500 0.001200 19.917799
						CHANNELS 3 Xrotation Yrotation Zrotation
						End Site
						{
							OFFSET 0.000000 19.917805 0.000000
						}
					}
				}
			}
		}
	}
	JOINT mixamorig:RightUpLeg
	{
		OFFSET -18.162500 -13.585098 -0.041000
		CHANNELS 3 Xrotation Yrotation Zrotation
		JOINT mixamorig:RightLeg
		{
			OFFSET -0.595024 -80.945297 -3.631900
			CHANNELS 3 Xrotation Yrotation Zrotation
			JOINT mixamorig:RightFoot
			{
				OFFSET 0.595024 -83.218193 -6.561200
				CHANNELS 3 Xrotation Yrotation Zrotation
				JOINT mixamorig:RightToeBase
				{
					OFFSET -0.753601 -20.807106 25.115000
					CHANNELS 3 Xrotation Yrotation Zrotation
					JOINT mixamorig:RightToe_End
					{
						OFFSET 0.000299 0.001700 19.918200
						CHANNELS 3 Xrotation Yrotation Zrotation
						End Site
						{
							OFFSET 0.000000 19.918203 0.000000
						}
					}
				}
			}
		}
	}
}
MOTION
Frames: 4
Frame Time: 0.033333
-1.466739 115.407730 0.783806 -22.798097 0.669796 -2.246085 6.030440 2.661393 0.712527 12.066327 5.236028 0.872092 12.066327 5.236026 0.872092 3.934193 -3.476569 -2.060921 -5.883520 -18.538575 5.028696 -0.000000 0.000001 -0.000000 -0.000000 0.000001 -0.000000 -0.000000 0.000001 -0.000000 1.173203 -2.220911 -19.894709 3.687256 -34.077952 -37.712647 -0.210439 -31.555163 0.009859 12.538864 -7.666780 32.370278 -12.373936 15.012959 -61.237584 -1.436756 -2.870034 -46.000436 0.000001 0.000005 0.000004 0.000002 0.000003 0.000003 -8.578423 -12.172676 22.707275 5.030584 4.109438 15.788076 0.000012 0.000003 -0.000003 -0.000002 0.000000 -0.000002 -3.567122 3.842310 -60.590676 -10.164941 -4.550851 -53.684464 0.000001 0.000003 0.000003 -0.000001 -0.000001 -0.000001 -11.901667 28.970387 -62.563085 -1.688356 -4.215950 -49.240739 0.000001 0.000006 0.000003 0.000002 0.000001 0.000002 -15.252123 30.084811 -69.930564 -0.435364 -5.276145 -20.890752 -0.000002 -0.000004 0.000000 0.000000 -0.000004 -0.000002 -2.939609 30.451671 21.129527 -12.669398 -4.471657 48.249597 -39.054421 68.025672 33.007285 -2.952747 -3.452823 -3.134949 -2.319999 10.552236 44.468981 -2.591625 2.915517 74.285240 0.000006 -0.000007 -0.000006 0.000001 0.000000 -0.000001 23.380815 13.538066 5.592173 2.321145 -6.714502 -2.170895 -0.000006 -0.000008 -0.000010 -0.000002 0.000003 0.000001 2.187544 5.608959 37.424150 1.433796 -2.439442 69.793024 0.000001 0.000004 0.000000 0.000001 -0.000000 0.000000 -3.428670 13.092784 55.668299 -2.589565 5.513047 54.530267 0.000024 -0.000008 0.000008 -0.000000 -0.000001 -0.000003 -3.360203 14.852909 54.810598 -1.148006 7.534082 27.882123 -0.000011 0.000001 -0.000002 -0.000001 0.000001 -0.000001 -75.467812 -1.454064 7.704937 106.288460 -1.359772 -3.021101 1.895605 -1.126558 1.583941 -18.596344 -0.171427 0.615528 -0.000001 0.000000 -0.000000 -71.194449 -0.580037 -14.828564 100.342917 1.597829 2.990316 -5.886851 3.565451 -1.267308 -1.545193 -0.182550 0.437011 -0.000000 0.000000 0.000000 
-1.468987 115.409454 0.767616 -22.840023 0.688485 -2.245830 6.044580 2.659148 0.715766 12.094287 5.233234 0.880608 12.094280 5.233233 0.880608 3.896042 -3.478971 -2.057731 -5.880676 -18.534263 4.966301 0.000000 0.000000 -0.000000 0.000000 0.000000 -0.000000 0.000000 0.000000 -0.000000 1.171316 -2.210718 -19.947402 3.662565 -34.125695 -37.663524 -0.196825 -31.518536 0.016181 12.523101 -7.672014 32.351584 -12.373942 15.012966 -61.237584 -1.436757 -2.870030 -46.000436 0.000003 0.000009 0.000004 0.000001 -0.000001 0.000001 -8.718502 -12.308241 22.639060 5.030592 4.109456 15.788074 0.000007 0.000002 -0.000003 -0.000002 -0.000000 -0.000001 -3.567120 3.842309 -60.590670 -10.164950 -4.550854 -53.684474 0.000001 0.000000 0.000001 -0.000001 0.000002 -0.000000 -11.901674 28.970384 -62.563064 -1.688353 -4.215947 -49.240743 -0.000000 0.000005 0.000002 0.000003 0.000001 0.000002 -15.252140 30.084815 -69.930530 -0.435361 -5.276141 -20.890757 -0.000003 -0.000002 0.000001 -0.000002 0.000000 0.000001 -2.827186 30.564161 20.944741 -12.725383 -4.504629 48.273810 -38.986703 68.012189 32.946657 -3.066946 -3.387774 -3.204004 -2.320003 10.552230 44.468978 -2.591632 2.915509 74.285233 0.000007 -0.000007 -0.000010 0.000001 0.000000 -0.000003 23.380806 13.538059 5.592177 2.321145 -6.714501 -2.170901 -0.000008 -0.000009 -0.000013 -0.000002 0.000001 0.000002 2.187537 5.608955 37.424143 1.433789 -2.439467 69.793031 0.000001 0.000004 0.000001 -0.000000 0.000000 0.000000 -3.428673 13.092786 55.668303 -2.589554 5.513051 54.530291 0.000023 -0.000008 0.000006 0.000000 0.000001 0.000005 -3.360191 14.852905 54.810595 -1.148024 7.534089 27.882099 -0.000012 0.000001 -0.000000 0.000001 -0.000001 -0.000000 -75.426305 -1.459055 7.690670 106.280155 -1.359673 -3.020578 1.907371 -1.130983 1.580365 -18.597217 -0.171437 0.615532 -0.000000 -0.000000 -0.000000 -71.142028 -0.588793 -14.837442 100.348333 1.601634 2.990537 -5.904856 3.517475 -1.280709 -1.545094 -0.181650 0.435020 -0.000000 0.000000 -0.000000 
-1.470110 115.410858 0.751915 -22.881675 0.708108 -2.247701 6.059846 2.657931 0.719075 12.124539 5.232362 0.888901 12.124541 5.232362 0.888901 3.853496 -3.484776 -2.060447 -5.908469 -18.555283 4.916226 -0.000000 0.000001 -0.000000 -0.000000 0.000001 -0.000000 -0.000000 0.000001 -0.000000 1.175858 -2.158980 -19.982074 3.536470 -34.209750 -37.702993 -0.166921 -31.414089 0.031969 12.562272 -7.709706 32.318461 -12.373962 15.012968 -61.237570 -1.436755 -2.870018 -46.000426 0.000001 0.000004 0.000002 0.000002 0.000004 0.000001 -8.894532 -12.376170 22.787541 5.030581 4.109436 15.788066 0.000010 0.000003 -0.000001 -0.000001 0.000004 0.000001 -3.567128 3.842314 -60.590690 -10.164941 -4.550856 -53.684464 -0.000000 0.000002 0.000001 -0.000001 -0.000001 -0.000002 -11.901662 28.970394 -62.563071 -1.688374 -4.215947 -49.240770 0.000001 0.000001 -0.000001 0.000001 -0.000000 0.000001 -15.252133 30.084825 -69.930550 -0.435352 -5.276139 -20.890755 0.000000 -0.000001 0.000000 -0.000003 -0.000003 -0.000003 -2.741042 30.659452 20.804674 -12.782684 -4.548842 48.284776 -38.974378 68.008836 32.935258 -3.140318 -3.345054 -3.248935 -2.320000 10.552238 44.468975 -2.591631 2.915514 74.285254 0.000007 -0.000008 -0.000011 0.000001 -0.000000 -0.000000 23.380820 13.538062 5.592165 2.321145 -6.714503 -2.170897 -0.000002 -0.000010 -0.000008 -0.000001 0.000001 -0.000000 2.187539 5.608959 37.424143 1.433793 -2.439460 69.793024 -0.000000 0.000005 -0.000004 -0.000001 -0.000001 0.000000 -3.428670 13.092776 55.668275 -2.589573 5.513033 54.530294 0.000024 -0.000009 0.000002 -0.000001 0.000001 0.000001 -3.360195 14.852902 54.810591 -1.147999 7.534088 27.882109 -0.000010 0.000001 -0.000001 0.000001 0.000001 0.000000 -75.386622 -1.463925 7.676334 106.272109 -1.355577 -3.019756 1.923923 -1.137112 1.583637 -18.604621 -0.171490 0.615534 0.000001 0.000000 0.000000 -71.091013 -0.604489 -14.854555 100.353524 1.604719 2.990774 -5.921924 3.474273 -1.296073 -1.545027 -0.180845 0.433212 0.000000 -0.000001 0.000000 
-1.469776 115.412338 0.739876 -22.922846 0.726899 -2.251081 6.076111 2.657624 0.720865 12.156913 5.233051 0.893823 12.156912 5.233055 0.893824 3.807658 -3.487207 -2.068276 -5.951816 -18.573344 4.921287 -0.000000 -0.000000 -0.000000 -0.000000 -0.000000 -0.000000 -0.000000 -0.000000 -0.000000 1.173006 -2.149213 -20.053242 3.559633 -34.246920 -37.599870 -0.196732 -31.445487 0.024812 12.573057 -7.679788 32.292438 -12.373944 15.012979 -61.237584 -1.436751 -2.870015 -46.000429 -0.000000 0.000004 0.000005 0.000002 -0.000001 0.000000 -9.153125 -12.359028 22.855932 5.030587 4.109452 15.788080 0.000010 0.000004 -0.000003 0.000001 0.000001 -0.000001 -3.567113 3.842320 -60.590663 -10.164946 -4.550866 -53.684474 -0.000000 -0.000000 0.000001 0.000000 -0.000000 0.000001 -11.901681 28.970404 -62.563078 -1.688353 -4.215952 -49.240767 -0.000005 0.000001 -0.000003 -0.000001 0.000001 -0.000001 -15.252128 30.084839 -69.930537 -0.435360 -5.276144 -20.890755 -0.000002 -0.000003 0.000001 -0.000001 -0.000002 0.000002 -2.690058 30.726531 20.723303 -12.842544 -4.597837 48.286821 -39.012743 68.012346 32.966994 -3.162250 -3.326439 -3.260541 -2.320006 10.552225 44.468978 -2.591612 2.915532 74.285240 0.000007 -0.000007 -0.000009 0.000002 -0.000001 -0.000002 23.380822 13.538070 5.592170 2.321148 -6.714503 -2.170896 -0.000006 -0.000009 -0.000011 -0.000004 0.000002 -0.000001 2.187547 5.608962 37.424143 1.433803 -2.439447 69.793045 0.000001 0.000003 0.000004 0.000001 0.000001 -0.000005 -3.428671 13.092795 55.668306 -2.589533 5.513044 54.530280 0.000023 -0.000009 0.000005 0.000001 0.000001 0.000005 -3.360213 14.852926 54.810602 -1.147997 7.534076 27.882109 -0.000011 0.000000 -0.000002 -0.000001 -0.000001 -0.000001 -75.347409 -1.469512 7.662793 106.266057 -1.346641 -3.018783 1.942497 -1.148438 1.593046 -18.610998 -0.171545 0.615535 0.000001 -0.000001 0.000000 -71.038694 -0.621965 -14.873128 100.358756 1.604130 2.990783 -5.940697 3.435444 -1.320021 -1.544926 -0.179901 0.431115 0.000000 0.000000 0.000000 
